<svg xmlns="http://www.w3.org/2000/svg" viewBox="0 0 582 470"><path fill="#7856AF" d="M0 0h582v471H0z"/><path fill="#FFD816" d="M135 122h142v236H135V122zm170 212v24h142v-24H305z"/><g fill="#FFF"><path d="M137.8 51.5l1.7-2.6c1.1.9 2.4 1.3 3.5 1.3.7 0 .9-.2.9-.6 0-.4-.4-.6-1.4-.9-2.3-.7-4.1-1.5-4.1-3.8v-.1c0-2.2 1.7-3.8 4.5-3.8 1.8 0 3.2.4 4.6 1.4l-1.7 2.6c-.9-.6-2-1.1-2.9-1.1-.5 0-.8.2-.8.5 0 .4.4.6 1.5.9 2.4.7 4.1 1.6 4.1 3.7 0 2.4-1.8 3.8-4.6 3.8-2.1.4-3.9-.1-5.3-1.3z"/><path d="M150.4 44.5h-2.9v-3.2h9.3v3.2h-2.9V53h-3.6v-8.5zM159.7 41.2h3.8l4 11.8h-3.8l-.5-1.7h-3.3l-.5 1.7h-3.8l4.1-11.8zm2.7 7.5l-.9-3-.9 3h1.8zM167.9 41.3h3.4l3.3 4.9v-4.9h3.5V53h-3.2l-3.5-5.2V53h-3.5V41.3zM179.3 41.3h3.9c4.1 0 6.2 2.2 6.2 5.7v.3c0 3.5-2.1 5.8-6.3 5.8h-3.8V41.3zm3.6 3.2v5.3h.4c1.5 0 2.5-.7 2.5-2.5V47c0-1.9-1-2.5-2.5-2.5h-.4zM193 41.2h3.8l4 11.8H197l-.5-1.7h-3.3l-.5 1.7h-3.8l4.1-11.8zm2.7 7.5l-.9-3-.9 3h1.8zM201.2 41.3h4.8c1.8 0 3.1.5 3.8 1.2.7.7 1.1 1.6 1.1 2.8v.1c0 1.7-.8 2.8-2 3.4l2.3 4.1h-4l-1.8-3.4h-.6V53h-3.6V41.3zm4.8 5.6c.8 0 1.3-.4 1.3-1.3v-.1c0-.8-.5-1.3-1.3-1.3h-1.2v2.6h1.2zM211.7 41.3h3.9c4.1 0 6.2 2.2 6.2 5.7v.3c0 3.5-2.1 5.8-6.3 5.8h-3.8V41.3zm3.6 3.2v5.3h.4c1.5 0 2.5-.7 2.5-2.5V47c0-1.9-1-2.5-2.5-2.5h-.4zM226 41.3h3.6v8.5h4.5V53H226V41.3zM234.1 47.3V47c0-3.5 2.3-6 5.5-6s5.5 2.4 5.5 5.9v.3c0 3.5-2.4 6-5.6 6s-5.4-2.4-5.4-5.9zm7.4 0V47c0-1.7-.7-2.8-1.9-2.8s-1.9 1-1.9 2.7v.3c0 1.7.7 2.8 1.9 2.8s1.9-1 1.9-2.7zM248.1 44.5h-2.9v-3.2h9.3v3.2h-2.9V53H248v-8.5z"/></g><g fill="#FFF"><path d="M144 64.3l-4.5 1.7-.3-1.7 5.2-2.2h1.5v27H144V64.3zM151.6 76v-.2c0-8 3.7-13.8 9.5-13.8s9.4 5.7 9.4 13.7v.2c0 8-3.7 13.8-9.5 13.8s-9.4-5.7-9.4-13.7zm17 0v-.2c0-6.8-3-12.1-7.5-12.1-4.6 0-7.5 5.2-7.5 12v.2c0 6.8 3 12.1 7.5 12.1s7.5-5.2 7.5-12zM174.9 76v-.2c0-8 3.7-13.8 9.5-13.8s9.4 5.7 9.4 13.7v.2c0 8-3.7 13.8-9.5 13.8s-9.4-5.7-9.4-13.7zm17 0v-.2c0-6.8-3-12.1-7.5-12.1-4.6 0-7.5 5.2-7.5 12v.2c0 6.8 3 12.1 7.5 12.1s7.5-5.2 7.5-12zM197.1 92.4c1.6-.8 2.2-1.7 2.1-3.1h-1v-3.2h2.5v2.8c0 2.4-.8 3.6-3.1 4.5l-.5-1zM205 76v-.2c0-8 3.7-13.8 9.5-13.8s9.4 5.7 9.4 13.7v.2c0 8-3.7 13.8-9.5 13.8S205 84 205 76zm17 0v-.2c0-6.8-3-12.1-7.5-12.1-4.6 0-7.5 5.2-7.5 12v.2c0 6.8 3 12.1 7.5 12.1s7.5-5.2 7.5-12zM228.3 76v-.2c0-8 3.7-13.8 9.5-13.8s9.4 5.7 9.4 13.7v.2c0 8-3.7 13.8-9.5 13.8s-9.4-5.7-9.4-13.7zm17 0v-.2c0-6.8-3-12.1-7.5-12.1-4.6 0-7.5 5.2-7.5 12v.2c0 6.8 3 12.1 7.5 12.1s7.5-5.2 7.5-12zM251.6 76v-.2c0-8 3.7-13.8 9.5-13.8s9.4 5.7 9.4 13.7v.2c0 8-3.7 13.8-9.5 13.8s-9.4-5.7-9.4-13.7zm17 0v-.2c0-6.8-3-12.1-7.5-12.1-4.6 0-7.5 5.2-7.5 12v.2c0 6.8 3 12.1 7.5 12.1s7.5-5.2 7.5-12z"/></g><g fill="#FFF"><path d="M139.2 105.7V100h1.2v5.4c0 1.6.7 2.4 2 2.4s2.2-1 2.2-2.5V100h1.2v8.7h-1.2v-1.4c-.5.9-1.3 1.6-2.6 1.6-1.7 0-2.8-1.2-2.8-3.2zM148.3 100h1.2v1.4c.5-.9 1.3-1.6 2.6-1.6 1.8 0 2.8 1.2 2.8 3.2v5.7h-1.2v-5.4c0-1.6-.7-2.4-2-2.4s-2.2 1-2.2 2.5v5.3h-1.2V100zM157.3 96.8h1.3v1.4h-1.3v-1.4zm.1 3.2h1.2v8.7h-1.2V100zM161.5 106.7v-5.6h-1.1V100h1.1v-2.5h1.2v2.5h2.3v1.1h-2.3v5.4c0 .9.5 1.3 1.3 1.3.3 0 .7-.1 1-.2v1c-.4.2-.8.3-1.3.3-1.2 0-2.2-.6-2.2-2.2zM166.2 107.7l.6-.9c.8.7 1.7 1.1 2.5 1.1 1 0 1.6-.5 1.6-1.4 0-.8-.7-1.2-1.9-1.7-1.4-.6-2.5-1.2-2.5-2.5 0-1.4 1.2-2.4 2.7-2.4 1 0 2 .4 2.7.9l-.6.9c-.7-.5-1.4-.8-2.2-.8-.9 0-1.5.5-1.5 1.2s.8 1.1 1.9 1.6c1.4.6 2.4 1.2 2.4 2.6 0 1.6-1.3 2.5-2.8 2.5-.9.1-2-.3-2.9-1.1zM178 104.4v-.1c0-2.5 1.6-4.5 3.9-4.5 2.2 0 3.9 1.9 3.9 4.5v.1c0 2.5-1.6 4.5-3.9 4.5s-3.9-1.9-3.9-4.5zm6.5 0c0-2-1.2-3.5-2.7-3.5-1.5 0-2.6 1.5-2.6 3.4v.1c0 2 1.2 3.4 2.6 3.4 1.6 0 2.7-1.4 2.7-3.4zM188.1 101.1H187V100h1.1v-.8c0-.9.3-1.6.7-2 .4-.4 1-.6 1.7-.6.5 0 .8.1 1.2.2v1.1c-.4-.1-.7-.2-1-.2-.9 0-1.3.5-1.3 1.6v.7h2.3v1.1h-2.3v7.6h-1.2v-7.6zM196.9 104.5v-.1c0-2.6 1.7-4.5 3.9-4.5 1.2 0 2.1.5 2.7 1.2l-.7.9c-.5-.5-1.1-1-2-1-1.5 0-2.6 1.4-2.6 3.4v.1c0 2.1 1.2 3.4 2.7 3.4.9 0 1.5-.4 2-1l.7.8c-.7.7-1.5 1.3-2.8 1.3-2.3-.1-3.9-1.9-3.9-4.5zM205.2 105.7V100h1.2v5.4c0 1.6.7 2.4 2 2.4s2.2-1 2.2-2.5V100h1.2v8.7h-1.2v-1.4c-.5.9-1.3 1.6-2.6 1.6-1.7 0-2.8-1.2-2.8-3.2zM214.3 100h1.2v1.9c.5-1.2 1.6-2.1 3-2v1.3h-.1c-1.6 0-2.9 1.1-2.9 3.4v4.1h-1.2V100zM220.2 100h1.2v1.9c.5-1.2 1.6-2.1 3-2v1.3h-.1c-1.6 0-2.9 1.1-2.9 3.4v4.1h-1.2V100zM225.2 104.4c0-2.7 1.6-4.6 3.6-4.6 2.2 0 3.5 1.9 3.5 4.5v.5h-5.8c.1 1.9 1.3 3 2.7 3 1 0 1.7-.4 2.3-1l.7.8c-.8.8-1.7 1.3-3 1.3-2.2 0-4-1.7-4-4.5zm5.9-.5c-.1-1.7-.9-3-2.3-3-1.3 0-2.3 1.2-2.4 3h4.7zM234.3 100h1.2v1.4c.5-.9 1.3-1.6 2.6-1.6 1.8 0 2.8 1.2 2.8 3.2v5.7h-1.2v-5.4c0-1.6-.7-2.4-2-2.4s-2.2 1-2.2 2.5v5.3h-1.2V100zM242.8 104.5v-.1c0-2.6 1.7-4.5 3.9-4.5 1.2 0 2.1.5 2.7 1.2l-.7.9c-.5-.5-1.1-1-2-1-1.5 0-2.6 1.4-2.6 3.4v.1c0 2.1 1.2 3.4 2.7 3.4.9 0 1.5-.4 2-1l.7.8c-.7.7-1.5 1.3-2.8 1.3-2.3-.1-3.9-1.9-3.9-4.5zM256.6 100h1.3l-3.1 8.9c-.6 1.8-1.4 2.4-2.5 2.4-.6 0-1.1-.1-1.6-.4l.4-1c.3.2.7.3 1.1.3.7 0 1.1-.4 1.5-1.5l-3.3-8.7h1.3l2.6 7.2 2.3-7.2z"/></g><g fill="#FFF"><path d="M306.6 256.3h3.7l2.1 3.9 2.1-3.9h3.7V268h-3.6v-5.7l-2.2 3.8h-.1l-2.2-3.8v5.7h-3.5v-11.7zM319.4 256.3h3.6V268h-3.6v-11.7zM324.1 256.3h3.4l3.3 4.9v-4.9h3.5V268h-3.2l-3.5-5.2v5.2h-3.5v-11.7zM335.5 256.3h3.6V268h-3.6v-11.7zM343.6 256.3h3.6v8.5h4.5v3.2h-8.1v-11.7zM351.6 262.3v-.3c0-3.5 2.3-6 5.5-6s5.5 2.4 5.5 5.9v.3c0 3.5-2.4 6-5.6 6s-5.4-2.4-5.4-5.9zm7.4 0v-.3c0-1.7-.7-2.8-1.9-2.8s-1.9 1-1.9 2.7v.3c0 1.7.7 2.8 1.9 2.8s1.9-1 1.9-2.7zM365.6 259.5h-2.9v-3.2h9.3v3.2h-2.9v8.5h-3.6v-8.5z"/></g><g fill="#FFF"><path d="M312 279.3l-4.5 1.7-.3-1.7 5.2-2.2h1.5v27H312v-24.8zM319.6 291v-.2c0-8 3.7-13.8 9.5-13.8s9.4 5.7 9.4 13.7v.2c0 8-3.7 13.8-9.5 13.8s-9.4-5.7-9.4-13.7zm17 0v-.2c0-6.8-3-12.1-7.5-12.1-4.6 0-7.5 5.2-7.5 12v.2c0 6.8 3 12.1 7.5 12.1s7.5-5.2 7.5-12zM341.8 307.4c1.6-.8 2.2-1.7 2.1-3.1h-1v-3.2h2.5v2.8c0 2.4-.8 3.6-3.1 4.5l-.5-1zM349.7 291v-.2c0-8 3.7-13.8 9.5-13.8s9.4 5.7 9.4 13.7v.2c0 8-3.7 13.8-9.5 13.8s-9.4-5.7-9.4-13.7zm17 0v-.2c0-6.8-3-12.1-7.5-12.1-4.6 0-7.5 5.2-7.5 12v.2c0 6.8 3 12.1 7.5 12.1s7.5-5.2 7.5-12zM373 291v-.2c0-8 3.7-13.8 9.5-13.8s9.4 5.7 9.4 13.7v.2c0 8-3.7 13.8-9.5 13.8S373 299 373 291zm17 0v-.2c0-6.8-3-12.1-7.5-12.1-4.6 0-7.5 5.2-7.5 12v.2c0 6.8 3 12.1 7.5 12.1s7.5-5.2 7.5-12zM396.3 291v-.2c0-8 3.7-13.8 9.5-13.8s9.4 5.7 9.4 13.7v.2c0 8-3.7 13.8-9.5 13.8s-9.4-5.7-9.4-13.7zm17 0v-.2c0-6.8-3-12.1-7.5-12.1-4.6 0-7.5 5.2-7.5 12v.2c0 6.8 3 12.1 7.5 12.1s7.5-5.2 7.5-12z"/></g><g fill="#FFF"><path d="M307.2 320.7V315h1.2v5.4c0 1.6.7 2.4 2 2.4s2.2-1 2.2-2.5V315h1.2v8.7h-1.2v-1.4c-.5.9-1.3 1.6-2.6 1.6-1.7 0-2.8-1.2-2.8-3.2zM316.3 315h1.2v1.4c.5-.9 1.3-1.6 2.6-1.6 1.8 0 2.8 1.2 2.8 3.2v5.7h-1.2v-5.4c0-1.6-.7-2.4-2-2.4s-2.2 1-2.2 2.5v5.3h-1.2V315zM325.3 311.8h1.3v1.4h-1.3v-1.4zm.1 3.2h1.2v8.7h-1.2V315zM329.5 321.7v-5.6h-1.1V315h1.1v-2.5h1.2v2.5h2.3v1.1h-2.3v5.4c0 .9.5 1.3 1.3 1.3.3 0 .7-.1 1-.2v1c-.4.2-.8.3-1.3.3-1.2 0-2.2-.6-2.2-2.2zM334.2 322.7l.6-.9c.8.7 1.7 1.1 2.5 1.1 1 0 1.6-.5 1.6-1.4 0-.8-.7-1.2-1.9-1.7-1.4-.6-2.5-1.2-2.5-2.5 0-1.4 1.2-2.4 2.7-2.4 1 0 2 .4 2.7.9l-.6.9c-.7-.5-1.4-.8-2.2-.8-.9 0-1.5.5-1.5 1.2s.8 1.1 1.9 1.6c1.4.6 2.4 1.2 2.4 2.6 0 1.6-1.3 2.5-2.8 2.5-.9.1-2-.3-2.9-1.1zM346 319.4v-.1c0-2.5 1.6-4.5 3.9-4.5 2.2 0 3.9 1.9 3.9 4.5v.1c0 2.5-1.6 4.5-3.9 4.5s-3.9-1.9-3.9-4.5zm6.5 0c0-2-1.2-3.5-2.7-3.5-1.5 0-2.6 1.5-2.6 3.4v.1c0 2 1.2 3.4 2.6 3.4 1.6 0 2.7-1.4 2.7-3.4zM356.1 316.1H355V315h1.1v-.8c0-.9.3-1.6.7-2 .4-.4 1-.6 1.7-.6.5 0 .8.1 1.2.2v1.1c-.4-.1-.7-.2-1-.2-.9 0-1.3.5-1.3 1.6v.7h2.3v1.1h-2.3v7.6h-1.2v-7.6zM364.9 319.5v-.1c0-2.6 1.7-4.5 3.9-4.5 1.2 0 2.1.5 2.7 1.2l-.7.9c-.5-.5-1.1-1-2-1-1.5 0-2.6 1.4-2.6 3.4v.1c0 2.1 1.2 3.4 2.7 3.4.9 0 1.5-.4 2-1l.7.8c-.7.7-1.5 1.3-2.8 1.3-2.3-.1-3.9-1.9-3.9-4.5zM373.2 320.7V315h1.2v5.4c0 1.6.7 2.4 2 2.4s2.2-1 2.2-2.5V315h1.2v8.7h-1.2v-1.4c-.5.9-1.3 1.6-2.6 1.6-1.7 0-2.8-1.2-2.8-3.2zM382.3 315h1.2v1.9c.5-1.2 1.6-2.1 3-2v1.3h-.1c-1.6 0-2.9 1.1-2.9 3.4v4.1h-1.2V315zM388.2 315h1.2v1.9c.5-1.2 1.6-2.1 3-2v1.3h-.1c-1.6 0-2.9 1.1-2.9 3.4v4.1h-1.2V315zM393.2 319.4c0-2.7 1.6-4.6 3.6-4.6 2.2 0 3.5 1.9 3.5 4.5v.5h-5.8c.1 1.9 1.3 3 2.7 3 1 0 1.7-.4 2.3-1l.7.8c-.8.8-1.7 1.3-3 1.3-2.2 0-4-1.7-4-4.5zm5.9-.5c-.1-1.7-.9-3-2.3-3-1.3 0-2.3 1.2-2.4 3h4.7zM402.3 315h1.2v1.4c.5-.9 1.3-1.6 2.6-1.6 1.8 0 2.8 1.2 2.8 3.2v5.7h-1.2v-5.4c0-1.6-.7-2.4-2-2.4s-2.2 1-2.2 2.5v5.3h-1.2V315zM410.8 319.5v-.1c0-2.6 1.7-4.5 3.9-4.5 1.2 0 2.1.5 2.7 1.2l-.7.9c-.5-.5-1.1-1-2-1-1.5 0-2.6 1.4-2.6 3.4v.1c0 2.1 1.2 3.4 2.7 3.4.9 0 1.5-.4 2-1l.7.8c-.7.7-1.5 1.3-2.8 1.3-2.3-.1-3.9-1.9-3.9-4.5zM424.6 315h1.3l-3.1 8.9c-.6 1.8-1.4 2.4-2.5 2.4-.6 0-1.1-.1-1.6-.4l.4-1c.3.2.7.3 1.1.3.7 0 1.1-.4 1.5-1.5l-3.3-8.7h1.3l2.6 7.2 2.3-7.2z"/></g><g fill="#FFF"><path d="M50.1 392.7h1.2l4.3 11.3h-1.3l-1.1-2.9h-5L47 404h-1.2l4.3-11.3zm2.7 7.3l-2.1-5.7-2.1 5.7h4.2zM59.5 403l1.1-1.9c.8.6 1.7.9 2.5.9.5 0 .7-.2.7-.5s-.4-.5-1.3-.8c-1.5-.6-2.6-1.2-2.6-2.7 0-1.7 1.3-2.8 3.2-2.8 1.1 0 2.2.3 3.2.9l-1 1.9c-.7-.4-1.5-.7-2.1-.7-.4 0-.7.2-.7.4 0 .3.4.5 1.3.8 1.6.6 2.6 1.2 2.6 2.7 0 1.8-1.3 2.8-3.3 2.8-1.2.2-2.5-.2-3.6-1z"/><path d="M67.2 401.6v-4h-.9v-2.3h.9v-2.2H70v2.2h1.7v2.3H70v3.4c0 .5.2.7.7.7.3 0 .6-.1 1-.2v2.2c-.5.3-1.2.4-1.9.4-1.6.1-2.6-.6-2.6-2.5zM72 401.6v-.1c0-1.9 1.2-2.7 3-2.7.7 0 1.3.1 1.8.3v-.2c0-.9-.5-1.3-1.5-1.3-.8 0-1.5.3-2 .5l-.6-2.1c.8-.4 1.9-.7 3.2-.7 1.3 0 2.3.3 2.9 1 .6.6.9 1.5.9 2.6v5.2h-2.8v-.9c-.5.7-1.2 1.1-2.2 1.1-1.6-.1-2.7-1.1-2.7-2.7zm4.8-.5v-.6c-.2-.1-.6-.2-1-.2-.7 0-1.1.4-1.1 1.1v.1c0 .6.4 1 .9 1 .7-.2 1.2-.6 1.2-1.4zM80.5 395.3h2.8v1.2c.5-.7 1.2-1.3 2.3-1.3 1.6 0 2.6 1.1 2.6 2.9v6h-2.8V399c0-.8-.4-1.2-1-1.2s-1 .4-1 1.2v5.1h-2.8v-8.8zM88.8 399.8v-.3c0-2.9 1.5-4.4 3.2-4.4 1.2 0 1.8.6 2.3 1.2v-4h2.8V404h-2.8v-1.1c-.5.7-1.2 1.3-2.3 1.3-1.7 0-3.2-1.5-3.2-4.4zm5.6 0v-.2c0-1.2-.6-2-1.4-2-.8 0-1.4.8-1.4 2v.2c0 1.2.6 2 1.4 2 .8 0 1.4-.8 1.4-2zM97.7 401.6v-.1c0-1.9 1.2-2.7 3-2.7.7 0 1.3.1 1.8.3v-.2c0-.9-.5-1.3-1.5-1.3-.8 0-1.5.3-2 .5l-.6-2.1c.8-.4 1.9-.7 3.2-.7 1.3 0 2.3.3 2.9 1 .6.6.9 1.5.9 2.6v5.2h-2.8v-.9c-.5.7-1.2 1.1-2.2 1.1-1.6-.1-2.7-1.1-2.7-2.7zm4.8-.5v-.6c-.2-.1-.6-.2-1-.2-.7 0-1.1.4-1.1 1.1v.1c0 .6.4 1 .9 1 .7-.2 1.2-.6 1.2-1.4zM106.2 395.3h2.8v1.6c.4-1.1 1.1-1.8 2.3-1.7v3.1h-.2c-1.4 0-2.1.8-2.1 2.5v3.2h-2.8v-8.7zM111.4 399.8v-.3c0-2.9 1.5-4.4 3.2-4.4 1.2 0 1.8.6 2.3 1.2v-4h2.8V404H117v-1.1c-.5.7-1.2 1.3-2.3 1.3-1.8 0-3.3-1.5-3.3-4.4zm5.6 0v-.2c0-1.2-.6-2-1.4-2-.8 0-1.4.8-1.4 2v.2c0 1.2.6 2 1.4 2 .8 0 1.4-.8 1.4-2zM124.2 392.4h2.8V404h-2.8v-11.6zM127.8 399.8v-.2c0-2.5 1.8-4.4 4.2-4.4 2.4 0 4.2 1.8 4.2 4.4v.2c0 2.5-1.8 4.4-4.2 4.4-2.5 0-4.2-1.8-4.2-4.4zm5.6 0v-.1c0-1.2-.6-2-1.5-2s-1.4.8-1.4 2v.1c0 1.2.6 2 1.5 2s1.4-.8 1.4-2zM137.3 401.6v-4h-.9v-2.3h.9v-2.2h2.8v2.2h1.7v2.3h-1.7v3.4c0 .5.2.7.7.7.3 0 .6-.1 1-.2v2.2c-.5.3-1.2.4-1.9.4-1.6.1-2.6-.6-2.6-2.5zM146.1 395.7h1.2v1.8c.5-1.2 1.5-2 2.9-2v1.2h-.1c-1.6 0-2.8 1.1-2.8 3.2v4h-1.2v-8.2zM150.6 399.9c0-2.6 1.5-4.4 3.4-4.4 2.1 0 3.3 1.8 3.3 4.3v.5h-5.6c.1 1.8 1.3 2.9 2.6 2.9.9 0 1.6-.4 2.2-1l.7.7c-.8.8-1.6 1.2-2.9 1.2-2.1.1-3.7-1.6-3.7-4.2zm5.6-.5c-.1-1.6-.8-2.9-2.2-2.9-1.2 0-2.2 1.1-2.3 2.9h4.5zM158.8 395.7h1.2v1.6c.6-.9 1.4-1.8 2.7-1.8 1.7 0 3.3 1.5 3.3 4.2v.2c0 2.8-1.6 4.3-3.3 4.3-1.3 0-2.2-.8-2.7-1.7v4h-1.2v-10.8zm6 4.2v-.1c0-2-1.1-3.2-2.4-3.2-1.3 0-2.5 1.3-2.5 3.2v.2c0 2 1.2 3.2 2.5 3.2s2.4-1.2 2.4-3.3zM167.5 395.7h1.2v1.8c.5-1.2 1.5-2 2.9-2v1.2h-.1c-1.6 0-2.8 1.1-2.8 3.2v4h-1.2v-8.2zM172 399.9c0-2.6 1.5-4.4 3.4-4.4 2.1 0 3.3 1.8 3.3 4.3v.5h-5.6c.1 1.8 1.3 2.9 2.6 2.9.9 0 1.6-.4 2.2-1l.7.7c-.8.8-1.6 1.2-2.9 1.2-2.1.1-3.7-1.6-3.7-4.2zm5.6-.5c-.1-1.6-.8-2.9-2.2-2.9-1.2 0-2.2 1.1-2.3 2.9h4.5zM179.5 403l.6-.8c.8.7 1.6 1 2.4 1 .9 0 1.6-.5 1.6-1.3 0-.7-.7-1.1-1.8-1.6-1.3-.6-2.4-1.1-2.4-2.4 0-1.4 1.1-2.3 2.6-2.3.9 0 1.9.4 2.6.9l-.6.9c-.6-.5-1.4-.8-2.1-.8-.9 0-1.4.5-1.4 1.2s.7 1.1 1.9 1.5c1.4.6 2.3 1.2 2.3 2.4 0 1.5-1.2 2.4-2.7 2.4-1.1 0-2.2-.4-3-1.1zM186.2 399.9c0-2.6 1.5-4.4 3.4-4.4 2.1 0 3.3 1.8 3.3 4.3v.5h-5.6c.1 1.8 1.3 2.9 2.6 2.9.9 0 1.6-.4 2.2-1l.7.7c-.8.8-1.6 1.2-2.9 1.2-2 .1-3.7-1.6-3.7-4.2zm5.6-.5c-.1-1.6-.8-2.9-2.2-2.9-1.2 0-2.2 1.1-2.3 2.9h4.5zM194.4 395.7h1.2v1.4c.5-.8 1.2-1.5 2.5-1.5 1.7 0 2.7 1.2 2.7 3v5.5h-1.2V399c0-1.5-.7-2.3-1.9-2.3s-2.1 1-2.1 2.4v5.1h-1.2v-8.5zM203 402.1v-5.4h-1v-1h1v-2.4h1.2v2.4h2.2v1h-2.2v5.2c0 .9.5 1.2 1.2 1.2.3 0 .6-.1 1-.2v1c-.4.2-.8.3-1.2.3-1.3-.1-2.2-.6-2.2-2.1zM207 403l.6-.8c.8.7 1.6 1 2.4 1 .9 0 1.6-.5 1.6-1.3 0-.7-.7-1.1-1.8-1.6-1.3-.6-2.4-1.1-2.4-2.4 0-1.4 1.1-2.3 2.6-2.3.9 0 1.9.4 2.6.9l-.6.9c-.6-.5-1.4-.8-2.1-.8-.9 0-1.4.5-1.4 1.2s.7 1.1 1.9 1.5c1.4.6 2.3 1.2 2.3 2.4 0 1.5-1.2 2.4-2.7 2.4-1 0-2.1-.4-3-1.1zM223.7 394.9c-.7-.6-1.4-.9-2.1-1v4c2.2.7 3 1.6 3 3.2s-1.2 2.8-3 3v1.6h-.9V404c-1.2-.1-2.4-.6-3.3-1.5l.7-.9c.8.8 1.6 1.2 2.6 1.3v-4.1c-2-.7-3-1.5-3-3.1s1.2-2.7 2.9-2.9v-1h.9v1c1.1.1 1.9.5 2.7 1.2l-.5.9zm-2.9 2.7v-3.7c-1.1.1-1.8.9-1.8 1.8 0 .8.4 1.4 1.8 1.9zm.8 1.5v3.9c1.2-.1 1.9-.9 1.9-1.9 0-.9-.4-1.5-1.9-2zM227.5 394l-1.8.6-.2-1 2.3-.9h.9V404h-1.2v-10zM230.6 398.5v-.1c0-3.4 1.6-5.7 4.1-5.7 2.5 0 4 2.3 4 5.7v.1c0 3.4-1.6 5.7-4.1 5.7-2.5 0-4-2.4-4-5.7zm6.9 0v-.1c0-2.7-1.1-4.6-2.8-4.6-1.7 0-2.8 1.9-2.8 4.6v.1c0 2.7 1.1 4.6 2.8 4.6 1.7 0 2.8-1.9 2.8-4.6zM244.8 391.4h1l-6.2 14.5h-1.1l6.3-14.5zM245.8 395.7h1.2v1.6c.6-.9 1.4-1.8 2.7-1.8 1.7 0 3.3 1.5 3.3 4.2v.2c0 2.8-1.6 4.3-3.3 4.3-1.3 0-2.2-.8-2.7-1.7v4h-1.2v-10.8zm6.1 4.2v-.1c0-2-1.1-3.2-2.4-3.2-1.3 0-2.5 1.3-2.5 3.2v.2c0 2 1.2 3.2 2.5 3.2s2.4-1.2 2.4-3.3zM254.6 392.6h1.3v1.4h-1.3v-1.4zm.1 3.1h1.2v8.3h-1.2v-8.3zM257.9 395.7h1.2v1.6c.6-.9 1.4-1.8 2.7-1.8 1.7 0 3.3 1.5 3.3 4.2v.2c0 2.8-1.6 4.3-3.3 4.3-1.3 0-2.2-.8-2.7-1.7v4h-1.2v-10.8zm6 4.2v-.1c0-2-1.1-3.2-2.4-3.2-1.3 0-2.5 1.3-2.5 3.2v.2c0 2 1.2 3.2 2.5 3.2s2.4-1.2 2.4-3.3zM269.8 395.7h1.2l1.8 6.6 1.9-6.7h1l1.9 6.7 1.9-6.6h1.2l-2.5 8.4h-1l-1.9-6.5-1.9 6.5h-1l-2.6-8.4zM282 392.4h1.2v4.6c.5-.8 1.2-1.5 2.5-1.5 1.7 0 2.7 1.2 2.7 3v5.5h-1.2v-5.1c0-1.5-.7-2.3-1.9-2.3s-2.1 1-2.1 2.4v5.1H282v-11.7zM289.8 399.9c0-2.6 1.5-4.4 3.4-4.4 2.1 0 3.3 1.8 3.3 4.3v.5h-5.6c.1 1.8 1.3 2.9 2.6 2.9.9 0 1.6-.4 2.2-1l.7.7c-.8.8-1.6 1.2-2.9 1.2-2.1.1-3.7-1.6-3.7-4.2zm5.6-.5c-.1-1.6-.8-2.9-2.2-2.9-1.2 0-2.2 1.1-2.3 2.9h4.5zM298 395.7h1.2v1.4c.5-.8 1.2-1.5 2.5-1.5 1.7 0 2.7 1.2 2.7 3v5.5h-1.2V399c0-1.5-.7-2.3-1.9-2.3s-2.1 1-2.1 2.4v5.1H298v-8.5zM309.8 401.1v-5.5h1.2v5.1c0 1.5.7 2.3 1.9 2.3s2.1-.9 2.1-2.4v-5.1h1.2v8.3H315v-1.4c-.5.8-1.2 1.5-2.5 1.5-1.6.3-2.7-.9-2.7-2.8zM317.4 403l.6-.8c.8.7 1.6 1 2.4 1 .9 0 1.6-.5 1.6-1.3 0-.7-.7-1.1-1.8-1.6-1.3-.6-2.4-1.1-2.4-2.4 0-1.4 1.1-2.3 2.6-2.3.9 0 1.9.4 2.6.9l-.6.9c-.6-.5-1.4-.8-2.1-.8-.9 0-1.4.5-1.4 1.2s.7 1.1 1.9 1.5c1.4.6 2.3 1.2 2.3 2.4 0 1.5-1.2 2.4-2.7 2.4-1 0-2.1-.4-3-1.1zM324.6 392.6h1.3v1.4h-1.3v-1.4zm.1 3.1h1.2v8.3h-1.2v-8.3zM327.9 395.7h1.2v1.4c.5-.8 1.2-1.5 2.5-1.5 1.7 0 2.7 1.2 2.7 3v5.5h-1.2V399c0-1.5-.7-2.3-1.9-2.3s-2.1 1-2.1 2.4v5.1h-1.2v-8.5zM336 405.5l.5-.9c.8.5 1.7.8 2.7.8 1.6 0 2.5-.8 2.5-2.5v-1.2c-.6.9-1.4 1.7-2.8 1.7-1.7 0-3.3-1.4-3.3-3.9v-.1c0-2.5 1.6-3.9 3.3-3.9 1.3 0 2.2.8 2.7 1.6v-1.5h1.2v7.2c0 1.1-.3 2-.9 2.6-.6.6-1.6 1-2.8 1-1 0-2.1-.3-3.1-.9zm5.7-6c0-1.8-1.2-2.9-2.5-2.9s-2.4 1.1-2.4 2.9c0 1.8 1.1 2.9 2.4 2.9 1.3 0 2.5-1.1 2.5-2.9zM348.7 392.8h6.8v1.1h-5.6v3.9h5.1v1.1h-5.1v4h5.7v1.1h-6.9v-11.2zM357.3 399.8v-7h1.2v7c0 2.1 1.1 3.3 2.8 3.3 1.7 0 2.8-1.1 2.8-3.2v-7h1.2v7c0 2.9-1.6 4.4-4 4.4-2.4-.1-4-1.7-4-4.5zM367.4 392.8h3.8c1.3 0 2.3.4 2.9 1 .6.6.9 1.4.9 2.3 0 1.8-1.1 2.8-2.7 3.2l3 4.6H374l-2.8-4.4h-2.5v4.4h-1.2v-11.1zm3.7 5.8c1.8 0 2.8-.9 2.8-2.3 0-1.5-1-2.3-2.7-2.3h-2.5v4.7h2.4zM381.6 391.4h1l-6.2 14.5h-1.1l6.3-14.5zM383.4 399.8v-7h1.2v7c0 2.1 1.1 3.3 2.8 3.3 1.7 0 2.8-1.1 2.8-3.2v-7h1.2v7c0 2.9-1.6 4.4-4 4.4-2.3-.1-4-1.7-4-4.5zM392.9 402.6l.8-.9c.9.9 1.9 1.4 3.2 1.4 1.3 0 2.2-.8 2.2-1.9 0-.9-.4-1.5-2.5-2.2-2.3-.9-3.2-1.7-3.2-3.3 0-1.7 1.4-3 3.4-3 1.3 0 2.4.4 3.4 1.3l-.7.9c-.8-.7-1.7-1.1-2.7-1.1-1.3 0-2.1.8-2.1 1.7 0 1 .5 1.5 2.6 2.3 2.3.8 3.1 1.8 3.1 3.3 0 1.8-1.5 3.1-3.5 3.1-1.6 0-2.8-.5-4-1.6zM402 392.8h3.2c3.1 0 5.3 2.2 5.3 5.5v.1c0 3.3-2.1 5.6-5.3 5.6H402v-11.2zm1.2 1.1v9h1.9c2.4 0 4-1.8 4-4.4v-.1c0-2.7-1.6-4.4-4-4.4h-1.9zM415.3 401.6c0-1.8 1.2-2.8 3.1-2.8.9 0 1.5.1 2.1.3v-.5c0-1.3-.8-2.1-2.1-2.1-.8 0-1.6.3-2.1.6l-.4-.9c.8-.4 1.6-.7 2.6-.7s1.8.3 2.3.8c.5.5.8 1.3.8 2.3v5.4h-1.1v-1.2c-.5.8-1.3 1.4-2.5 1.4-1.4 0-2.7-1-2.7-2.6zm5.2-.5v-1c-.5-.2-1.2-.3-2-.3-1.3 0-2.1.7-2.1 1.7s.8 1.7 1.8 1.7c1.3 0 2.3-.9 2.3-2.1zM422.8 403l.6-.8c.8.7 1.6 1 2.4 1 .9 0 1.6-.5 1.6-1.3 0-.7-.7-1.1-1.8-1.6-1.3-.6-2.4-1.1-2.4-2.4 0-1.4 1.1-2.3 2.6-2.3.9 0 1.9.4 2.6.9l-.6.9c-.6-.5-1.4-.8-2.1-.8-.9 0-1.4.5-1.4 1.2s.7 1.1 1.9 1.5c1.4.6 2.3 1.2 2.3 2.4 0 1.5-1.2 2.4-2.7 2.4-1.1 0-2.2-.4-3-1.1zM433.2 401.6c0-1.8 1.2-2.8 3.1-2.8.9 0 1.5.1 2.1.3v-.5c0-1.3-.8-2.1-2.1-2.1-.8 0-1.6.3-2.1.6l-.4-.9c.8-.4 1.6-.7 2.6-.7s1.8.3 2.3.8c.5.5.8 1.3.8 2.3v5.4h-1.1v-1.2c-.5.8-1.3 1.4-2.5 1.4-1.5 0-2.7-1-2.7-2.6zm5.2-.5v-1c-.5-.2-1.2-.3-2-.3-1.3 0-2.1.7-2.1 1.7s.8 1.7 1.8 1.7c1.3 0 2.3-.9 2.3-2.1zM446.2 402.4v1.6H445v-11.6h1.2v4.8c.6-.9 1.4-1.8 2.7-1.8 1.7 0 3.3 1.5 3.3 4.2v.2c0 2.8-1.6 4.3-3.3 4.3-1.3.1-2.1-.7-2.7-1.7zm4.9-2.5v-.1c0-2-1.1-3.2-2.4-3.2-1.3 0-2.5 1.3-2.5 3.2v.2c0 2 1.2 3.2 2.5 3.2s2.4-1.2 2.4-3.3zM453.3 401.6c0-1.8 1.2-2.8 3.1-2.8.9 0 1.5.1 2.1.3v-.5c0-1.3-.8-2.1-2.1-2.1-.8 0-1.6.3-2.1.6l-.4-.9c.8-.4 1.6-.7 2.6-.7s1.8.3 2.3.8c.5.5.8 1.3.8 2.3v5.4h-1.1v-1.2c-.5.8-1.3 1.4-2.5 1.4-1.4 0-2.7-1-2.7-2.6zm5.2-.5v-1c-.5-.2-1.2-.3-2-.3-1.3 0-2.1.7-2.1 1.7s.8 1.7 1.8 1.7c1.3 0 2.3-.9 2.3-2.1zM460.7 403l.6-.8c.8.7 1.6 1 2.4 1 .9 0 1.6-.5 1.6-1.3 0-.7-.7-1.1-1.8-1.6-1.3-.6-2.4-1.1-2.4-2.4 0-1.4 1.1-2.3 2.6-2.3.9 0 1.9.4 2.6.9l-.6.9c-.6-.5-1.4-.8-2.1-.8-.9 0-1.4.5-1.4 1.2s.7 1.1 1.9 1.5c1.4.6 2.3 1.2 2.3 2.4 0 1.5-1.2 2.4-2.7 2.4-1 0-2.1-.4-3-1.1zM467.5 399.9c0-2.6 1.5-4.4 3.4-4.4 2.1 0 3.3 1.8 3.3 4.3v.5h-5.6c.1 1.8 1.3 2.9 2.6 2.9.9 0 1.6-.4 2.2-1l.7.7c-.8.8-1.6 1.2-2.9 1.2-2.1.1-3.7-1.6-3.7-4.2zm5.6-.5c-.1-1.6-.8-2.9-2.2-2.9-1.2 0-2.2 1.1-2.3 2.9h4.5zM479 399.9v-.1c0-2.5 1.6-4.3 3.7-4.3 1.2 0 2 .5 2.6 1.1l-.7.9c-.5-.5-1.1-.9-2-.9-1.4 0-2.5 1.3-2.5 3.3v.1c0 2 1.2 3.2 2.6 3.2.8 0 1.4-.4 2-1l.7.8c-.6.7-1.5 1.2-2.7 1.2-2.1 0-3.7-1.8-3.7-4.3zM486.6 401.1v-5.5h1.2v5.1c0 1.5.7 2.3 1.9 2.3s2.1-.9 2.1-2.4v-5.1h1.2v8.3h-1.2v-1.4c-.5.8-1.2 1.5-2.5 1.5-1.7.3-2.7-.9-2.7-2.8zM494.9 395.7h1.2v1.8c.5-1.2 1.5-2 2.9-2v1.2h-.1c-1.6 0-2.8 1.1-2.8 3.2v4h-1.2v-8.2zM500.1 395.7h1.2v1.8c.5-1.2 1.5-2 2.9-2v1.2h-.2c-1.6 0-2.8 1.1-2.8 3.2v4H500v-8.2zM504.5 399.9c0-2.6 1.5-4.4 3.4-4.4 2.1 0 3.3 1.8 3.3 4.3v.5h-5.6c.1 1.8 1.3 2.9 2.6 2.9.9 0 1.6-.4 2.2-1l.7.7c-.8.8-1.6 1.2-2.9 1.2-2 .1-3.7-1.6-3.7-4.2zm5.7-.5c-.1-1.6-.8-2.9-2.2-2.9-1.2 0-2.2 1.1-2.3 2.9h4.5zM512.8 395.7h1.2v1.4c.5-.8 1.2-1.5 2.5-1.5 1.7 0 2.7 1.2 2.7 3v5.5H518V399c0-1.5-.7-2.3-1.9-2.3s-2.1 1-2.1 2.4v5.1h-1.2v-8.5zM520.5 399.9v-.1c0-2.5 1.6-4.3 3.7-4.3 1.2 0 2 .5 2.6 1.1l-.7.9c-.5-.5-1.1-.9-2-.9-1.4 0-2.5 1.3-2.5 3.3v.1c0 2 1.2 3.2 2.6 3.2.8 0 1.4-.4 2-1l.7.8c-.6.7-1.5 1.2-2.7 1.2-2.1 0-3.7-1.8-3.7-4.3zM533.4 395.7h1.2l-3 8.5c-.6 1.7-1.3 2.3-2.4 2.3-.5 0-1-.1-1.5-.4l.4-1c.3.2.7.3 1.1.3.6 0 1-.4 1.4-1.4l-3.2-8.3h1.2l2.5 6.9 2.3-6.9zM534.6 402.4h1.4v1.6h-1.4v-1.6z"/></g><g fill="#FFF"><path d="M50.1 419.7h1.2l4.3 11.3h-1.3l-1.1-2.9h-5L47 431h-1.2l4.3-11.3zm2.7 7.3l-2.1-5.7-2.1 5.7h4.2zM60.1 422.3h2.8v1.1c.5-.7 1.2-1.3 2.3-1.3 1 0 1.8.5 2.2 1.3.6-.8 1.4-1.3 2.5-1.3 1.6 0 2.6 1 2.6 2.8v6h-2.8v-5.1c0-.8-.4-1.2-1-1.2s-1 .4-1 1.2v5.1h-2.8v-5.1c0-.8-.4-1.2-1-1.2s-1 .4-1 1.2v5.1h-2.8v-8.6zM73.4 419.4h2.9v2.2h-2.9v-2.2zm0 2.9h2.8v8.7h-2.8v-8.7zM77.3 422.3h2.8v1.2c.5-.7 1.2-1.3 2.3-1.3 1.6 0 2.6 1.1 2.6 2.9v6h-2.8V426c0-.8-.4-1.2-1-1.2s-1 .4-1 1.2v5.1h-2.8v-8.8zM85.9 419.4h2.9v2.2h-2.9v-2.2zm0 2.9h2.8v8.7h-2.8v-8.7zM93.2 419.4H96V431h-2.8v-11.6zM96.8 426.8v-.2c0-2.5 1.8-4.4 4.2-4.4 2.4 0 4.2 1.8 4.2 4.4v.2c0 2.5-1.8 4.4-4.2 4.4-2.5 0-4.2-1.8-4.2-4.4zm5.6 0v-.1c0-1.2-.6-2-1.5-2s-1.4.8-1.4 2v.1c0 1.2.6 2 1.5 2s1.4-.8 1.4-2zM106.3 428.6v-4h-.9v-2.3h.9v-2.2h2.8v2.2h1.7v2.3h-1.7v3.4c0 .5.2.7.7.7.3 0 .6-.1 1-.2v2.2c-.5.3-1.2.4-1.9.4-1.6.1-2.6-.6-2.6-2.5zM115.7 422.7h1.2v1.8c.5-1.2 1.5-2 2.9-2v1.2h-.1c-1.6 0-2.8 1.1-2.8 3.2v4h-1.2v-8.2zM120.1 426.9c0-2.6 1.5-4.4 3.4-4.4 2.1 0 3.3 1.8 3.3 4.3v.5h-5.6c.1 1.8 1.3 2.9 2.6 2.9.9 0 1.6-.4 2.2-1l.7.7c-.8.8-1.6 1.2-2.9 1.2-2 .1-3.7-1.6-3.7-4.2zm5.7-.5c-.1-1.6-.8-2.9-2.2-2.9-1.2 0-2.2 1.1-2.3 2.9h4.5zM128.4 422.7h1.2v1.6c.6-.9 1.4-1.8 2.7-1.8 1.7 0 3.3 1.5 3.3 4.2v.2c0 2.8-1.6 4.3-3.3 4.3-1.3 0-2.2-.8-2.7-1.7v4h-1.2v-10.8zm6 4.2v-.1c0-2-1.1-3.2-2.4-3.2-1.3 0-2.5 1.3-2.5 3.2v.2c0 2 1.2 3.2 2.5 3.2s2.4-1.2 2.4-3.3zM137.1 422.7h1.2v1.8c.5-1.2 1.5-2 2.9-2v1.2h-.1c-1.6 0-2.8 1.1-2.8 3.2v4h-1.2v-8.2zM141.5 426.9c0-2.6 1.5-4.4 3.4-4.4 2.1 0 3.3 1.8 3.3 4.3v.5h-5.6c.1 1.8 1.3 2.9 2.6 2.9.9 0 1.6-.4 2.2-1l.7.7c-.8.8-1.6 1.2-2.9 1.2-2 .1-3.7-1.6-3.7-4.2zm5.7-.5c-.1-1.6-.8-2.9-2.2-2.9-1.2 0-2.2 1.1-2.3 2.9h4.5zM149 430l.6-.8c.8.7 1.6 1 2.4 1 .9 0 1.6-.5 1.6-1.3 0-.7-.7-1.1-1.8-1.6-1.3-.6-2.4-1.1-2.4-2.4 0-1.4 1.1-2.3 2.6-2.3.9 0 1.9.4 2.6.9l-.6.9c-.6-.5-1.4-.8-2.1-.8-.9 0-1.4.5-1.4 1.2s.7 1.1 1.9 1.5c1.4.6 2.3 1.2 2.3 2.4 0 1.5-1.2 2.4-2.7 2.4-1 0-2.1-.4-3-1.1zM155.8 426.9c0-2.6 1.5-4.4 3.4-4.4 2.1 0 3.3 1.8 3.3 4.3v.5h-5.6c.1 1.8 1.3 2.9 2.6 2.9.9 0 1.6-.4 2.2-1l.7.7c-.8.8-1.6 1.2-2.9 1.2-2.1.1-3.7-1.6-3.7-4.2zm5.6-.5c-.1-1.6-.8-2.9-2.2-2.9-1.2 0-2.2 1.1-2.3 2.9h4.5zM164 422.7h1.2v1.4c.5-.8 1.2-1.5 2.5-1.5 1.7 0 2.7 1.2 2.7 3v5.5h-1.2V426c0-1.5-.7-2.3-1.9-2.3s-2.1 1-2.1 2.4v5.1H164v-8.5zM172.5 429.1v-5.4h-1v-1h1v-2.4h1.2v2.4h2.2v1h-2.2v5.2c0 .9.5 1.2 1.2 1.2.3 0 .6-.1 1-.2v1c-.4.2-.8.3-1.2.3-1.3-.1-2.2-.6-2.2-2.1zM176.6 430l.6-.8c.8.7 1.6 1 2.4 1 .9 0 1.6-.5 1.6-1.3 0-.7-.7-1.1-1.8-1.6-1.3-.6-2.4-1.1-2.4-2.4 0-1.4 1.1-2.3 2.6-2.3.9 0 1.9.4 2.6.9l-.6.9c-.6-.5-1.4-.8-2.1-.8-.9 0-1.4.5-1.4 1.2s.7 1.1 1.9 1.5c1.4.6 2.3 1.2 2.3 2.4 0 1.5-1.2 2.4-2.7 2.4-1 0-2.2-.4-3-1.1zM193.3 421.9c-.7-.6-1.4-.9-2.1-1v4c2.2.7 3 1.6 3 3.2s-1.2 2.8-3 3v1.6h-.9V431c-1.2-.1-2.4-.6-3.3-1.5l.7-.9c.8.8 1.6 1.2 2.6 1.3v-4.1c-2-.7-3-1.5-3-3.1s1.2-2.7 2.9-2.9v-1h.9v1c1.1.1 1.9.5 2.7 1.2l-.5.9zm-3 2.7v-3.7c-1.1.1-1.8.9-1.8 1.8 0 .8.5 1.4 1.8 1.9zm.9 1.5v3.9c1.2-.1 1.9-.9 1.9-1.9 0-.9-.5-1.5-1.9-2zM197.1 421l-1.8.6-.2-1 2.3-.9h.9V431h-1.2v-10zM205.3 418.4h1l-6.2 14.5H199l6.3-14.5zM206.4 422.7h1.2v1.6c.6-.9 1.4-1.8 2.7-1.8 1.7 0 3.3 1.5 3.3 4.2v.2c0 2.8-1.6 4.3-3.3 4.3-1.3 0-2.2-.8-2.7-1.7v4h-1.2v-10.8zm6 4.2v-.1c0-2-1.1-3.2-2.4-3.2-1.3 0-2.5 1.3-2.5 3.2v.2c0 2 1.2 3.2 2.5 3.2s2.4-1.2 2.4-3.3zM215.1 419.6h1.3v1.4h-1.3v-1.4zm.1 3.1h1.2v8.3h-1.2v-8.3zM218.4 422.7h1.2v1.6c.6-.9 1.4-1.8 2.7-1.8 1.7 0 3.3 1.5 3.3 4.2v.2c0 2.8-1.6 4.3-3.3 4.3-1.3 0-2.2-.8-2.7-1.7v4h-1.2v-10.8zm6 4.2v-.1c0-2-1.1-3.2-2.4-3.2-1.3 0-2.5 1.3-2.5 3.2v.2c0 2 1.2 3.2 2.5 3.2s2.4-1.2 2.4-3.3zM230.3 422.7h1.2l1.8 6.6 1.9-6.7h1l1.9 6.7 1.9-6.6h1.2l-2.5 8.4h-1l-1.9-6.5-1.9 6.5h-1l-2.6-8.4zM242.5 419.4h1.2v4.6c.5-.8 1.2-1.5 2.5-1.5 1.7 0 2.7 1.2 2.7 3v5.5h-1.2v-5.1c0-1.5-.7-2.3-1.9-2.3s-2.1 1-2.1 2.4v5.1h-1.2v-11.7zM250.3 426.9c0-2.6 1.5-4.4 3.4-4.4 2.1 0 3.3 1.8 3.3 4.3v.5h-5.6c.1 1.8 1.3 2.9 2.6 2.9.9 0 1.6-.4 2.2-1l.7.7c-.8.8-1.6 1.2-2.9 1.2-2.1.1-3.7-1.6-3.7-4.2zm5.6-.5c-.1-1.6-.8-2.9-2.2-2.9-1.2 0-2.2 1.1-2.3 2.9h4.5zM258.5 422.7h1.2v1.4c.5-.8 1.2-1.5 2.5-1.5 1.7 0 2.7 1.2 2.7 3v5.5h-1.2V426c0-1.5-.7-2.3-1.9-2.3s-2.1 1-2.1 2.4v5.1h-1.2v-8.5zM270.3 428.1v-5.5h1.2v5.1c0 1.5.7 2.3 1.9 2.3s2.1-.9 2.1-2.4v-5.1h1.2v8.3h-1.2v-1.4c-.5.8-1.2 1.5-2.5 1.5-1.6.3-2.7-.9-2.7-2.8zM277.9 430l.6-.8c.8.7 1.6 1 2.4 1 .9 0 1.6-.5 1.6-1.3 0-.7-.7-1.1-1.8-1.6-1.3-.6-2.4-1.1-2.4-2.4 0-1.4 1.1-2.3 2.6-2.3.9 0 1.9.4 2.6.9l-.6.9c-.6-.5-1.4-.8-2.1-.8-.9 0-1.4.5-1.4 1.2s.7 1.1 1.9 1.5c1.4.6 2.3 1.2 2.3 2.4 0 1.5-1.2 2.4-2.7 2.4-1 0-2.1-.4-3-1.1zM285.1 419.6h1.3v1.4h-1.3v-1.4zm.1 3.1h1.2v8.3h-1.2v-8.3zM288.4 422.7h1.2v1.4c.5-.8 1.2-1.5 2.5-1.5 1.7 0 2.7 1.2 2.7 3v5.5h-1.2V426c0-1.5-.7-2.3-1.9-2.3s-2.1 1-2.1 2.4v5.1h-1.2v-8.5zM296.5 432.5l.5-.9c.8.5 1.7.8 2.7.8 1.6 0 2.5-.8 2.5-2.5v-1.2c-.6.9-1.4 1.7-2.8 1.7-1.7 0-3.3-1.4-3.3-3.9v-.1c0-2.5 1.6-3.9 3.3-3.9 1.3 0 2.2.8 2.7 1.6v-1.5h1.2v7.2c0 1.1-.3 2-.9 2.6-.6.6-1.6 1-2.8 1-1 0-2.1-.3-3.1-.9zm5.7-6c0-1.8-1.2-2.9-2.5-2.9s-2.4 1.1-2.4 2.9c0 1.8 1.1 2.9 2.4 2.9 1.3 0 2.5-1.1 2.5-2.9zM309.2 419.8h6.8v1.1h-5.6v3.9h5.1v1.1h-5.1v4h5.7v1.1h-6.9v-11.2zM317.8 426.8v-7h1.2v7c0 2.1 1.1 3.3 2.8 3.3 1.7 0 2.8-1.1 2.8-3.2v-7h1.2v7c0 2.9-1.6 4.4-4 4.4-2.4-.1-4-1.7-4-4.5zM328 419.8h3.8c1.3 0 2.3.4 2.9 1 .6.6.9 1.4.9 2.3 0 1.8-1.1 2.8-2.7 3.2l3 4.6h-1.4l-2.8-4.4h-2.5v4.4H328v-11.1zm3.6 5.8c1.8 0 2.8-.9 2.8-2.3 0-1.5-1-2.3-2.7-2.3h-2.5v4.7h2.4zM342.1 418.4h1l-6.2 14.5h-1.1l6.3-14.5zM344 426.8v-7h1.2v7c0 2.1 1.1 3.3 2.8 3.3 1.7 0 2.8-1.1 2.8-3.2v-7h1.2v7c0 2.9-1.6 4.4-4 4.4-2.4-.1-4-1.7-4-4.5zM353.4 429.6l.8-.9c.9.9 1.9 1.4 3.2 1.4 1.3 0 2.2-.8 2.2-1.9 0-.9-.4-1.5-2.5-2.2-2.3-.9-3.2-1.7-3.2-3.3 0-1.7 1.4-3 3.4-3 1.3 0 2.4.4 3.4 1.3l-.7.9c-.8-.7-1.7-1.1-2.7-1.1-1.3 0-2.1.8-2.1 1.7 0 1 .5 1.5 2.6 2.3 2.3.8 3.1 1.8 3.1 3.3 0 1.8-1.5 3.1-3.5 3.1-1.6 0-2.8-.5-4-1.6zM362.5 419.8h3.2c3.1 0 5.3 2.2 5.3 5.5v.1c0 3.3-2.1 5.6-5.3 5.6h-3.2v-11.2zm1.2 1.1v9h1.9c2.4 0 4-1.8 4-4.4v-.1c0-2.7-1.6-4.4-4-4.4h-1.9zM375.8 428.6c0-1.8 1.2-2.8 3.1-2.8.9 0 1.5.1 2.1.3v-.5c0-1.3-.8-2.1-2.1-2.1-.8 0-1.6.3-2.1.6l-.4-.9c.8-.4 1.6-.7 2.6-.7s1.8.3 2.3.8c.5.5.8 1.3.8 2.3v5.4H381v-1.2c-.5.8-1.3 1.4-2.5 1.4-1.4 0-2.7-1-2.7-2.6zm5.3-.5v-1c-.5-.2-1.2-.3-2-.3-1.3 0-2.1.7-2.1 1.7s.8 1.7 1.8 1.7c1.2 0 2.3-.9 2.3-2.1zM383.3 430l.6-.8c.8.7 1.6 1 2.4 1 .9 0 1.6-.5 1.6-1.3 0-.7-.7-1.1-1.8-1.6-1.3-.6-2.4-1.1-2.4-2.4 0-1.4 1.1-2.3 2.6-2.3.9 0 1.9.4 2.6.9l-.6.9c-.6-.5-1.4-.8-2.1-.8-.9 0-1.4.5-1.4 1.2s.7 1.1 1.9 1.5c1.4.6 2.3 1.2 2.3 2.4 0 1.5-1.2 2.4-2.7 2.4-1 0-2.2-.4-3-1.1zM393.7 428.6c0-1.8 1.2-2.8 3.1-2.8.9 0 1.5.1 2.1.3v-.5c0-1.3-.8-2.1-2.1-2.1-.8 0-1.6.3-2.1.6l-.4-.9c.8-.4 1.6-.7 2.6-.7s1.8.3 2.3.8c.5.5.8 1.3.8 2.3v5.4h-1.1v-1.2c-.5.8-1.3 1.4-2.5 1.4-1.5 0-2.7-1-2.7-2.6zm5.2-.5v-1c-.5-.2-1.2-.3-2-.3-1.3 0-2.1.7-2.1 1.7s.8 1.7 1.8 1.7c1.3 0 2.3-.9 2.3-2.1zM406.8 429.4v1.6h-1.2v-11.6h1.2v4.8c.6-.9 1.4-1.8 2.7-1.8 1.7 0 3.3 1.5 3.3 4.2v.2c0 2.8-1.6 4.3-3.3 4.3-1.4.1-2.2-.7-2.7-1.7zm4.8-2.5v-.1c0-2-1.1-3.2-2.4-3.2-1.3 0-2.5 1.3-2.5 3.2v.2c0 2 1.2 3.2 2.5 3.2s2.4-1.2 2.4-3.3zM413.8 428.6c0-1.8 1.2-2.8 3.1-2.8.9 0 1.5.1 2.1.3v-.5c0-1.3-.8-2.1-2.1-2.1-.8 0-1.6.3-2.1.6l-.4-.9c.8-.4 1.6-.7 2.6-.7s1.8.3 2.3.8c.5.5.8 1.3.8 2.3v5.4H419v-1.2c-.5.8-1.3 1.4-2.5 1.4-1.4 0-2.7-1-2.7-2.6zm5.2-.5v-1c-.5-.2-1.2-.3-2-.3-1.3 0-2.1.7-2.1 1.7s.8 1.7 1.8 1.7c1.3 0 2.3-.9 2.3-2.1zM421.2 430l.6-.8c.8.7 1.6 1 2.4 1 .9 0 1.6-.5 1.6-1.3 0-.7-.7-1.1-1.8-1.6-1.3-.6-2.4-1.1-2.4-2.4 0-1.4 1.1-2.3 2.6-2.3.9 0 1.9.4 2.6.9l-.6.9c-.6-.5-1.4-.8-2.1-.8-.9 0-1.4.5-1.4 1.2s.7 1.1 1.9 1.5c1.4.6 2.3 1.2 2.3 2.4 0 1.5-1.2 2.4-2.7 2.4-1 0-2.1-.4-3-1.1zM428 426.9c0-2.6 1.5-4.4 3.4-4.4 2.1 0 3.3 1.8 3.3 4.3v.5h-5.6c.1 1.8 1.3 2.9 2.6 2.9.9 0 1.6-.4 2.2-1l.7.7c-.8.8-1.6 1.2-2.9 1.2-2.1.1-3.7-1.6-3.7-4.2zm5.6-.5c-.1-1.6-.8-2.9-2.2-2.9-1.2 0-2.2 1.1-2.3 2.9h4.5zM439.5 426.9v-.1c0-2.5 1.6-4.3 3.7-4.3 1.2 0 2 .5 2.6 1.1l-.7.9c-.5-.5-1.1-.9-2-.9-1.4 0-2.5 1.3-2.5 3.3v.1c0 2 1.2 3.2 2.6 3.2.8 0 1.4-.4 2-1l.7.8c-.6.7-1.5 1.2-2.7 1.2-2.1 0-3.7-1.8-3.7-4.3zM447.1 428.1v-5.5h1.2v5.1c0 1.5.7 2.3 1.9 2.3s2.1-.9 2.1-2.4v-5.1h1.2v8.3h-1.2v-1.4c-.5.8-1.2 1.5-2.5 1.5-1.7.3-2.7-.9-2.7-2.8zM455.4 422.7h1.2v1.8c.5-1.2 1.5-2 2.9-2v1.2h-.1c-1.6 0-2.8 1.1-2.8 3.2v4h-1.2v-8.2zM460.6 422.7h1.2v1.8c.5-1.2 1.5-2 2.9-2v1.2h-.1c-1.6 0-2.8 1.1-2.8 3.2v4h-1.2v-8.2zM465 426.9c0-2.6 1.5-4.4 3.4-4.4 2.1 0 3.3 1.8 3.3 4.3v.5h-5.6c.1 1.8 1.3 2.9 2.6 2.9.9 0 1.6-.4 2.2-1l.7.7c-.8.8-1.6 1.2-2.9 1.2-2 .1-3.7-1.6-3.7-4.2zm5.7-.5c-.1-1.6-.8-2.9-2.2-2.9-1.2 0-2.2 1.1-2.3 2.9h4.5zM473.3 422.7h1.2v1.4c.5-.8 1.2-1.5 2.5-1.5 1.7 0 2.7 1.2 2.7 3v5.5h-1.2V426c0-1.5-.7-2.3-1.9-2.3s-2.1 1-2.1 2.4v5.1h-1.2v-8.5zM481 426.9v-.1c0-2.5 1.6-4.3 3.7-4.3 1.2 0 2 .5 2.6 1.1l-.7.9c-.5-.5-1.1-.9-2-.9-1.4 0-2.5 1.3-2.5 3.3v.1c0 2 1.2 3.2 2.6 3.2.8 0 1.4-.4 2-1l.7.8c-.6.7-1.5 1.2-2.7 1.2-2.1 0-3.7-1.8-3.7-4.3zM493.9 422.7h1.2l-3 8.5c-.6 1.7-1.3 2.3-2.4 2.3-.5 0-1-.1-1.5-.4l.4-1c.3.2.7.3 1.1.3.6 0 1-.4 1.4-1.4l-3.2-8.3h1.2l2.5 6.9 2.3-6.9zM495.2 429.4h1.4v1.6h-1.4v-1.6z"/></g></svg>